<svg width="161" height="50" viewBox="0 0 161 50" fill="none" xmlns="http://www.w3.org/2000/svg">
<mask id="mask0_4110_9397" style="mask-type:luminance" maskUnits="userSpaceOnUse" x="135" y="10" width="17" height="17">
<path d="M135.078 10.1536H151.627V26.013H135.078V10.1536Z" fill="white"/>
</mask>
<g mask="url(#mask0_4110_9397)">
<mask id="mask1_4110_9397" style="mask-type:luminance" maskUnits="userSpaceOnUse" x="132" y="2" width="28" height="28">
<path d="M132.172 13.3206L142.833 2.17212L159.346 17.9669L148.686 29.1153L132.172 13.3206Z" fill="white"/>
</mask>
<g mask="url(#mask1_4110_9397)">
<mask id="mask2_4110_9397" style="mask-type:luminance" maskUnits="userSpaceOnUse" x="132" y="2" width="28" height="28">
<path d="M132.18 13.32L142.84 2.17151L159.354 17.9663L148.693 29.1147L132.18 13.32Z" fill="white"/>
</mask>
<g mask="url(#mask2_4110_9397)">
<path d="M151.223 10.2684L137.481 10.5055C134.828 10.5513 134.698 15.7336 137.839 15.6258L146.383 15.3295L146.259 23.9515C146.221 26.575 151.336 26.5373 151.317 23.8734L151.223 10.2684Z" fill="#18CB96"/>
</g>
</g>
</g>
<mask id="mask3_4110_9397" style="mask-type:luminance" maskUnits="userSpaceOnUse" x="144" y="0" width="17" height="18">
<path d="M144.045 0.5H160.594V17.049H144.045V0.5Z" fill="white"/>
</mask>
<g mask="url(#mask3_4110_9397)">
<mask id="mask4_4110_9397" style="mask-type:luminance" maskUnits="userSpaceOnUse" x="141" y="-8" width="28" height="28">
<path d="M141.033 4.02577L151.694 -7.12L168.208 8.67478L157.547 19.8232L141.033 4.02577Z" fill="white"/>
</mask>
<g mask="url(#mask4_4110_9397)">
<mask id="mask5_4110_9397" style="mask-type:luminance" maskUnits="userSpaceOnUse" x="141" y="-8" width="28" height="28">
<path d="M141.027 4.02577L151.688 -7.12L168.202 8.67478L157.541 19.8232L141.027 4.02577Z" fill="white"/>
</mask>
<g mask="url(#mask5_4110_9397)">
<path d="M160.078 0.97644L146.336 1.21078C143.683 1.25657 143.554 6.44158 146.694 6.33384L155.235 6.03755L155.114 14.6568C155.076 17.283 160.191 17.2453 160.173 14.5814L160.078 0.97644Z" fill="#18CB96"/>
</g>
</g>
</g>
<path d="M0 41.6244V22.1987H4.18027L4.92366 24.7953C5.56202 23.8768 6.34851 23.2169 7.28314 22.8129C8.22317 22.4034 9.40829 22.1987 10.8385 22.1987H12.9502V27.3056H10.8062C9.20359 27.3056 7.94035 27.7366 7.0138 28.5985C6.08724 29.4604 5.62397 30.9419 5.62397 33.0374V41.6244H0Z" fill="white"/>
<path d="M22.0902 41.9906C19.7981 41.9906 17.9854 41.4573 16.6494 40.3853C15.3188 39.316 14.6562 37.8426 14.6562 35.9679C14.6562 34.166 15.2515 32.7303 16.4447 31.6583C17.6433 30.5809 19.2513 30.0422 21.2714 30.0422H28.3068V29.1587C28.3068 28.1971 27.962 27.4241 27.2725 26.8423C26.5829 26.2605 25.6806 25.9696 24.5682 25.9696C23.6551 25.9696 22.8767 26.1824 22.2303 26.6053C21.5892 27.0228 21.1852 27.5749 21.0128 28.2645H15.6151C15.9599 26.1474 16.9134 24.5205 18.481 23.3838C20.0459 22.2499 22.0633 21.6815 24.5359 21.6815C27.4448 21.6815 29.7181 22.4195 31.3558 23.8902C32.9988 25.3555 33.823 27.3702 33.823 29.9344V41.6243H29.6319L29.0071 39.3725C27.3048 41.1179 24.9992 41.9906 22.0902 41.9906ZM20.2048 35.7417C20.2048 36.4097 20.4903 36.9484 21.0667 37.3578C21.6485 37.7618 22.4188 37.9611 23.3831 37.9611C24.7891 37.9611 25.9527 37.5571 26.8738 36.7437C27.8004 35.9248 28.2879 34.8636 28.3391 33.5545H23.0168C22.1764 33.5545 21.4977 33.7539 20.9805 34.1471C20.4634 34.5431 20.2048 35.0737 20.2048 35.7417Z" fill="white"/>
<path d="M47.0268 41.6242C44.5542 41.6242 42.658 40.9886 41.3382 39.7172C40.0238 38.4459 39.3666 36.6304 39.3666 34.2655V26.7883H35.5957V22.1986H37.3303C38.3915 22.1986 39.1134 22.0262 39.4958 21.6814C39.8756 21.3367 40.1423 20.6741 40.2931 19.6882L40.6271 17.1671H44.9905V22.1986H50.3128V26.7883H44.9905V33.4144C44.9905 35.6339 46.0733 36.7436 48.2442 36.7436H50.5714V41.6242H47.0268Z" fill="white"/>
<path d="M62.7136 42.1417C60.637 42.1417 58.8027 41.7107 57.2082 40.8488C55.619 39.9869 54.38 38.7856 53.4912 37.2395C52.6077 35.6961 52.166 33.9157 52.166 31.8956C52.166 29.87 52.6131 28.0923 53.5128 26.5624C54.4178 25.0325 55.6621 23.8366 57.2513 22.9746C58.8458 22.1127 60.6882 21.6818 62.7783 21.6818C65.0031 21.6818 66.9208 22.1774 68.5315 23.1686C70.1476 24.1544 71.3785 25.5335 72.227 27.3058C73.0808 29.0808 73.4471 31.1522 73.3259 33.5225H57.7469C58.0189 34.8531 58.6115 35.8685 59.5246 36.5715C60.435 37.2772 61.5339 37.6274 62.8214 37.6274C63.7533 37.6274 64.6099 37.4523 65.3856 37.0994C66.1667 36.7412 66.7916 36.2375 67.2602 35.5911H72.9596C72.1192 37.6381 70.7968 39.2435 68.9948 40.4071C67.1983 41.5653 65.1054 42.1417 62.7136 42.1417ZM57.79 29.967H67.8851C67.5673 28.7819 66.972 27.8526 66.0966 27.1765C65.2186 26.5032 64.1277 26.1638 62.8214 26.1638C61.5851 26.1638 60.5185 26.5032 59.6215 27.1765C58.7219 27.8526 58.1132 28.7819 57.79 29.967Z" fill="white"/>
<path d="M85.3588 49.4999C82.9158 49.4999 80.8796 48.8992 79.25 47.7006C77.6258 46.5074 76.6427 44.8886 76.298 42.8415H79.4439C79.7375 44.0051 80.4028 44.9236 81.4371 45.5996C82.4714 46.2811 83.7777 46.6232 85.3588 46.6232C87.3843 46.6232 88.9492 46.0764 90.0562 44.9855C91.1686 43.9 91.7262 42.3728 91.7262 40.4066V38.5857C90.8858 39.4773 89.8731 40.1776 88.6879 40.6867C87.5028 41.1904 86.2207 41.4409 84.8417 41.4409C83.0155 41.4409 81.3832 41.018 79.9395 40.1695C78.4958 39.3157 77.3538 38.1548 76.5134 36.6895C75.6785 35.2188 75.2637 33.5435 75.2637 31.6688C75.2637 29.7941 75.6785 28.1322 76.5134 26.6804C77.3538 25.2232 78.4958 24.0704 79.9395 23.2219C81.3832 22.3681 83.0155 21.9398 84.8417 21.9398C86.2988 21.9398 87.6375 22.2146 88.8603 22.7586C90.0805 23.2974 91.1067 24.0488 91.9416 25.0104L92.2756 22.4247H94.829V40.5143C94.829 42.3163 94.4412 43.892 93.6655 45.2441C92.8897 46.6016 91.7908 47.6494 90.3687 48.3901C88.9519 49.1282 87.2819 49.4999 85.3588 49.4999ZM78.3666 31.6688C78.3666 32.9778 78.6521 34.1441 79.2285 35.1704C79.8103 36.1912 80.6183 36.9858 81.6526 37.5514C82.6923 38.1198 83.8666 38.4026 85.1756 38.4026C86.5035 38.4026 87.6779 38.1198 88.6987 37.5514C89.7249 36.9858 90.5303 36.1912 91.1121 35.1704C91.6938 34.1441 91.9847 32.9778 91.9847 31.6688C91.9847 30.3624 91.6938 29.2069 91.1121 28.1995C90.5303 27.1868 89.7249 26.3895 88.6987 25.8077C87.6779 25.2259 86.5035 24.935 85.1756 24.935C83.8666 24.935 82.6923 25.2259 81.6526 25.8077C80.6183 26.3895 79.8103 27.1868 79.2285 28.1995C78.6521 29.2069 78.3666 30.3624 78.3666 31.6688Z" fill="white"/>
<path d="M108.624 42.1093C106.698 42.1093 104.996 41.6838 103.517 40.838C102.035 39.9842 100.877 38.7909 100.037 37.261C99.2019 35.7311 98.7871 33.9803 98.7871 32.0033C98.7871 30.0289 99.2019 28.2835 100.037 26.7671C100.877 25.2533 102.044 24.0709 103.538 23.2224C105.031 22.3686 106.738 21.9403 108.656 21.9403C110.703 21.9403 112.475 22.4224 113.978 23.384C115.487 24.3483 116.642 25.6735 117.447 27.3597C118.25 29.0485 118.614 31.0175 118.536 33.2638H101.922C102.173 35.0685 102.903 36.5041 104.109 37.5735C105.316 38.6455 106.83 39.1788 108.656 39.1788C109.919 39.1788 111.069 38.9094 112.104 38.3707C113.138 37.8267 113.949 37.0455 114.539 36.0328H118.062C117.291 37.9075 116.068 39.3916 114.388 40.4825C112.712 41.5679 110.792 42.1093 108.624 42.1093ZM101.965 30.5272H115.433C115.11 28.7764 114.337 27.392 113.116 26.3792C111.894 25.3665 110.407 24.8601 108.656 24.8601C106.881 24.8601 105.392 25.3826 104.185 26.4223C102.978 27.4566 102.237 28.8249 101.965 30.5272Z" fill="white"/>
<path d="M122.432 41.6245V22.4251H124.985L125.319 25.2372C126.159 24.0736 127.175 23.2332 128.368 22.716C129.567 22.1989 130.808 21.9403 132.096 21.9403C134.66 21.9403 136.656 22.7564 138.086 24.386C139.514 26.0102 140.23 28.1946 140.23 30.9366V41.6245H137.127V31.2275C137.127 29.2828 136.637 27.7421 135.662 26.6055C134.684 25.4715 133.359 24.9032 131.686 24.9032C130.501 24.9032 129.445 25.1941 128.519 25.7759C127.592 26.3523 126.862 27.1711 126.332 28.2324C125.807 29.2963 125.545 30.5272 125.545 31.9279V41.6245H122.432Z" fill="white"/>
</svg>
