<svg width="99" height="30" viewBox="0 0 99 30" fill="none" xmlns="http://www.w3.org/2000/svg">
<mask id="mask0_3921_19437" style="mask-type:luminance" maskUnits="userSpaceOnUse" x="82" y="5" width="11" height="11">
<path d="M82.7013 5.91028H92.8333V15.6201H82.7013V5.91028Z" fill="white"/>
</mask>
<g mask="url(#mask0_3921_19437)">
<mask id="mask1_3921_19437" style="mask-type:luminance" maskUnits="userSpaceOnUse" x="80" y="1" width="18" height="17">
<path d="M80.9202 7.84963L87.4473 1.02405L97.5578 10.6943L91.0307 17.5199L80.9202 7.84963Z" fill="white"/>
</mask>
<g mask="url(#mask1_3921_19437)">
<mask id="mask2_3921_19437" style="mask-type:luminance" maskUnits="userSpaceOnUse" x="80" y="1" width="18" height="17">
<path d="M80.9202 7.84963L87.4473 1.02405L97.5578 10.6943L91.0307 17.5199L80.9202 7.84963Z" fill="white"/>
</mask>
<g mask="url(#mask2_3921_19437)">
<path d="M92.5825 5.9812L84.1688 6.12632C82.5445 6.15436 82.4653 9.3272 84.3881 9.26124L89.619 9.07984L89.5432 14.3586C89.5201 15.9648 92.6517 15.9417 92.6402 14.3108L92.5825 5.9812Z" fill="#18CB96"/>
</g>
</g>
</g>
<mask id="mask3_3921_19437" style="mask-type:luminance" maskUnits="userSpaceOnUse" x="88" y="0" width="11" height="11">
<path d="M88.1896 0H98.3216V10.132H88.1896V0Z" fill="white"/>
</mask>
<g mask="url(#mask3_3921_19437)">
<mask id="mask4_3921_19437" style="mask-type:luminance" maskUnits="userSpaceOnUse" x="86" y="-5" width="17" height="17">
<path d="M86.3492 2.15865L92.8763 -4.66528L102.987 5.00498L96.4598 11.8306L86.3492 2.15865Z" fill="white"/>
</mask>
<g mask="url(#mask4_3921_19437)">
<mask id="mask5_3921_19437" style="mask-type:luminance" maskUnits="userSpaceOnUse" x="86" y="-5" width="17" height="17">
<path d="M86.3492 2.15865L92.8763 -4.66528L102.987 5.00498L96.4598 11.8306L86.3492 2.15865Z" fill="white"/>
</mask>
<g mask="url(#mask5_3921_19437)">
<path d="M98.0117 0.29187L89.598 0.435341C87.9737 0.463375 87.8945 3.63787 89.8173 3.57191L95.0466 3.39051L94.9724 8.6676C94.9493 10.2755 98.0809 10.2524 98.0694 8.62142L98.0117 0.29187Z" fill="#18CB96"/>
</g>
</g>
</g>
<path d="M0 25.178V13.2848H2.55939L3.01454 14.8745C3.40537 14.3122 3.8869 13.9081 4.45914 13.6608C5.03467 13.4101 5.76027 13.2848 6.63594 13.2848H7.92882V16.4115H6.61615C5.63494 16.4115 4.86152 16.6753 4.29423 17.203C3.72694 17.7307 3.4433 18.6377 3.4433 19.9207V25.178H0Z" fill="white"/>
<path d="M13.5241 25.4024C12.1208 25.4024 11.0109 25.0759 10.193 24.4195C9.37833 23.7649 8.97266 22.8628 8.97266 21.715C8.97266 20.6118 9.3371 19.7328 10.0677 19.0765C10.8015 18.4169 11.786 18.087 13.0228 18.087H17.3302V17.5461C17.3302 16.9574 17.1192 16.4841 16.697 16.1279C16.2748 15.7717 15.7224 15.5936 15.0413 15.5936C14.4823 15.5936 14.0057 15.7239 13.6099 15.9828C13.2174 16.2384 12.97 16.5765 12.8645 16.9986H9.55973C9.77082 15.7025 10.3546 14.7064 11.3144 14.0105C12.2725 13.3162 13.5077 12.9683 15.0215 12.9683C16.8025 12.9683 18.1944 13.4201 19.197 14.3205C20.203 15.2176 20.7076 16.4511 20.7076 18.0211V25.1781H18.1416L17.759 23.7995C16.7168 24.8681 15.3052 25.4024 13.5241 25.4024ZM12.3698 21.5765C12.3698 21.9855 12.5446 22.3153 12.8975 22.566C13.2537 22.8133 13.7253 22.9354 14.3157 22.9354C15.1765 22.9354 15.8889 22.688 16.4529 22.19C17.0202 21.6886 17.3187 21.0389 17.35 20.2374H14.0914C13.5769 20.2374 13.1613 20.3595 12.8447 20.6002C12.5281 20.8427 12.3698 21.1675 12.3698 21.5765Z" fill="white"/>
<path d="M28.7934 25.1781C27.2795 25.1781 26.1186 24.7889 25.3105 24.0105C24.5058 23.2322 24.1034 22.1207 24.1034 20.6728V16.0949H21.7947V13.2848H22.8567C23.5064 13.2848 23.9484 13.1793 24.1826 12.9682C24.4151 12.7571 24.5783 12.3515 24.6707 11.7479L24.8752 10.2043H27.5467V13.2848H30.8053V16.0949H27.5467V20.1517C27.5467 21.5105 28.2096 22.1899 29.5388 22.1899H30.9636V25.1781H28.7934Z" fill="white"/>
<path d="M38.3996 25.4947C37.1282 25.4947 36.0051 25.2309 35.0289 24.7032C34.0559 24.1755 33.2973 23.44 32.7531 22.4934C32.2122 21.5485 31.9418 20.4584 31.9418 19.2216C31.9418 17.9815 32.2155 16.8931 32.7663 15.9564C33.3204 15.0197 34.0823 14.2875 35.0553 13.7598C36.0315 13.2321 37.1595 12.9683 38.4392 12.9683C39.8013 12.9683 40.9755 13.2717 41.9616 13.8786C42.9511 14.4821 43.7047 15.3265 44.2242 16.4116C44.747 17.4983 44.9712 18.7665 44.897 20.2177H35.3587C35.5252 21.0323 35.888 21.654 36.4471 22.0844C37.0045 22.5165 37.6773 22.7309 38.4656 22.7309C39.0362 22.7309 39.5606 22.6237 40.0355 22.4077C40.5137 22.1883 40.8963 21.8799 41.1833 21.4842H44.6727C44.1582 22.7375 43.3485 23.7203 42.2453 24.4327C41.1453 25.1418 39.864 25.4947 38.3996 25.4947ZM35.3851 18.0409H41.5659C41.3713 17.3153 41.0068 16.7463 40.4709 16.3324C39.9333 15.9201 39.2654 15.7123 38.4656 15.7123C37.7086 15.7123 37.0556 15.9201 36.5065 16.3324C35.9557 16.7463 35.583 17.3153 35.3851 18.0409Z" fill="white"/>
<path d="M52.2629 29.9999C50.7672 29.9999 49.5205 29.6322 48.5228 28.8984C47.5284 28.1678 46.9265 27.1767 46.7154 25.9234H48.6415C48.8213 26.6358 49.2286 27.1981 49.8619 27.6121C50.4951 28.0293 51.2949 28.2387 52.2629 28.2387C53.5031 28.2387 54.4612 27.904 55.139 27.2361C55.82 26.5715 56.1614 25.6365 56.1614 24.4326V23.3178C55.6469 23.8637 55.0268 24.2924 54.3012 24.6041C53.5756 24.9125 52.7906 25.0659 51.9463 25.0659C50.8282 25.0659 49.8289 24.807 48.945 24.2875C48.0611 23.7647 47.3618 23.054 46.8473 22.1569C46.3361 21.2565 46.0822 20.2307 46.0822 19.083C46.0822 17.9352 46.3361 16.9177 46.8473 16.0289C47.3618 15.1367 48.0611 14.4309 48.945 13.9114C49.8289 13.3887 50.8282 13.1265 51.9463 13.1265C52.8385 13.1265 53.6581 13.2947 54.4068 13.6278C55.1538 13.9576 55.7821 14.4177 56.2933 15.0064L56.4978 13.4233H58.0611V24.4986C58.0611 25.6018 57.8237 26.5665 57.3487 27.3944C56.8738 28.2255 56.201 28.867 55.3302 29.3205C54.4628 29.7724 53.4404 29.9999 52.2629 29.9999ZM47.9819 19.083C47.9819 19.8844 48.1567 20.5985 48.5096 21.2268C48.8658 21.8518 49.3605 22.3383 49.9938 22.6846C50.6303 23.0325 51.3493 23.2057 52.1508 23.2057C52.9638 23.2057 53.6828 23.0325 54.3078 22.6846C54.9361 22.3383 55.4292 21.8518 55.7854 21.2268C56.1416 20.5985 56.3197 19.8844 56.3197 19.083C56.3197 18.2832 56.1416 17.5757 55.7854 16.9589C55.4292 16.3389 54.9361 15.8508 54.3078 15.4946C53.6828 15.1384 52.9638 14.9603 52.1508 14.9603C51.3493 14.9603 50.6303 15.1384 49.9938 15.4946C49.3605 15.8508 48.8658 16.3389 48.5096 16.9589C48.1567 17.5757 47.9819 18.2832 47.9819 19.083Z" fill="white"/>
<path d="M66.5122 25.4748C65.3331 25.4748 64.2909 25.2143 63.3855 24.6965C62.4785 24.1737 61.7694 23.4432 61.2549 22.5065C60.7437 21.5698 60.4897 20.4979 60.4897 19.2875C60.4897 18.0787 60.7437 17.0101 61.2549 16.0816C61.7694 15.1548 62.4835 14.4309 63.3987 13.9114C64.3123 13.3887 65.3579 13.1265 66.532 13.1265C67.7853 13.1265 68.8704 13.4217 69.7906 14.0104C70.7141 14.6008 71.4216 15.4121 71.9146 16.4444C72.4061 17.4784 72.6287 18.6839 72.5809 20.0592H62.4093C62.5627 21.1641 63.0096 22.0431 63.7483 22.6978C64.4871 23.3541 65.4139 23.6806 66.532 23.6806C67.3054 23.6806 68.0096 23.5157 68.6428 23.1859C69.2761 22.8528 69.7725 22.3746 70.1336 21.7545H72.2906C71.819 22.9023 71.0703 23.8109 70.0413 24.4788C69.0155 25.1434 67.8397 25.4748 66.5122 25.4748ZM62.4357 18.3838H70.6811C70.4832 17.3119 70.0099 16.4642 69.2629 15.8442C68.5142 15.2241 67.6039 14.9141 66.532 14.9141C65.4453 14.9141 64.5333 15.234 63.7945 15.8705C63.0557 16.5038 62.6022 17.3415 62.4357 18.3838Z" fill="white"/>
<path d="M74.96 25.178V13.4233H76.5233L76.7278 15.145C77.2423 14.4325 77.864 13.918 78.5946 13.6014C79.3284 13.2848 80.0886 13.1265 80.8769 13.1265C82.4468 13.1265 83.6688 13.6261 84.5445 14.6238C85.4185 15.6182 85.8571 16.9557 85.8571 18.6344V25.178H83.9574V18.8125C83.9574 17.6219 83.6573 16.6786 83.0603 15.9827C82.4617 15.2884 81.6503 14.9405 80.6262 14.9405C79.9006 14.9405 79.2542 15.1186 78.6869 15.4748C78.1196 15.8277 77.6727 16.329 77.3478 16.9787C77.0263 17.6301 76.8663 18.3838 76.8663 19.2413V25.178H74.96Z" fill="white"/>
</svg>
