<svg width="168" height="51" viewBox="0 0 168 51" fill="none" xmlns="http://www.w3.org/2000/svg">
<mask id="mask0_3810_1835" style="mask-type:luminance" maskUnits="userSpaceOnUse" x="140" y="10" width="18" height="17">
<path d="M140.593 10.0474H157.817V26.5541H140.593V10.0474Z" fill="white"/>
</mask>
<g mask="url(#mask0_3810_1835)">
<mask id="mask1_3810_1835" style="mask-type:luminance" maskUnits="userSpaceOnUse" x="137" y="1" width="29" height="29">
<path d="M137.565 13.3442L148.661 1.74072L165.849 18.1802L154.753 29.7837L137.565 13.3442Z" fill="white"/>
</mask>
<g mask="url(#mask1_3810_1835)">
<mask id="mask2_3810_1835" style="mask-type:luminance" maskUnits="userSpaceOnUse" x="137" y="1" width="29" height="29">
<path d="M137.565 13.3442L148.661 1.74072L165.849 18.1802L154.753 29.7837L137.565 13.3442Z" fill="white"/>
</mask>
<g mask="url(#mask2_3810_1835)">
<path d="M157.392 10.1675L143.088 10.4142C140.327 10.4618 140.193 15.8557 143.461 15.7435L152.354 15.4352L152.225 24.409C152.186 27.1396 157.509 27.1003 157.49 24.3277L157.392 10.1675Z" fill="#18CB96"/>
</g>
</g>
</g>
<mask id="mask3_3810_1835" style="mask-type:luminance" maskUnits="userSpaceOnUse" x="149" y="0" width="19" height="18">
<path d="M149.922 0H167.146V17.2244H149.922V0Z" fill="white"/>
</mask>
<g mask="url(#mask3_3810_1835)">
<mask id="mask4_3810_1835" style="mask-type:luminance" maskUnits="userSpaceOnUse" x="146" y="-8" width="30" height="29">
<path d="M146.793 3.67002L157.889 -7.93066L175.077 8.50878L163.981 20.1123L146.793 3.67002Z" fill="white"/>
</mask>
<g mask="url(#mask4_3810_1835)">
<mask id="mask5_3810_1835" style="mask-type:luminance" maskUnits="userSpaceOnUse" x="146" y="-8" width="30" height="29">
<path d="M146.793 3.67002L157.889 -7.93066L175.077 8.50878L163.981 20.1123L146.793 3.67002Z" fill="white"/>
</mask>
<g mask="url(#mask5_3810_1835)">
<path d="M166.619 0.496582L152.316 0.740482C149.555 0.788141 149.42 6.18479 152.689 6.07265L161.579 5.76427L161.452 14.7353C161.413 17.4687 166.737 17.4294 166.717 14.6568L166.619 0.496582Z" fill="#18CB96"/>
</g>
</g>
</g>
<path d="M0 42.8025V22.584H4.35096L5.12471 25.2865C5.78913 24.3305 6.60774 23.6437 7.58054 23.2232C8.55894 22.797 9.79246 22.584 11.2811 22.584H13.479V27.8993H11.2475C9.5794 27.8993 8.26458 28.3479 7.30019 29.245C6.3358 30.1421 5.85361 31.684 5.85361 33.8651V42.8025H0Z" fill="black"/>
<path d="M22.9914 43.1839C20.6057 43.1839 18.719 42.6288 17.3285 41.5131C15.9436 40.4001 15.2539 38.8666 15.2539 36.9154C15.2539 35.0399 15.8735 33.5457 17.1154 32.4299C18.3629 31.3085 20.0366 30.7478 22.1392 30.7478H29.4618V29.8283C29.4618 28.8274 29.103 28.0229 28.3853 27.4173C27.6676 26.8118 26.7284 26.509 25.5706 26.509C24.6202 26.509 23.81 26.7305 23.1372 27.1706C22.47 27.6051 22.0495 28.1799 21.8701 28.8975H16.2519C16.6108 26.694 17.6032 25.0007 19.2348 23.8177C20.8636 22.6374 22.9634 22.0459 25.537 22.0459C28.5647 22.0459 30.9308 22.814 32.6353 24.3447C34.3454 25.8698 35.2033 27.9668 35.2033 30.6357V42.8027H30.8411L30.1907 40.459C28.4189 42.2756 26.0192 43.1839 22.9914 43.1839ZM21.029 36.6799C21.029 37.3752 21.3262 37.9359 21.9261 38.362C22.5317 38.7825 23.3335 38.99 24.3371 38.99C25.8005 38.99 27.0116 38.5694 27.9704 37.7228C28.9348 36.8706 29.4422 35.766 29.4954 34.4035H23.9558C23.0811 34.4035 22.3747 34.611 21.8364 35.0203C21.2982 35.4324 21.029 35.9847 21.029 36.6799Z" fill="black"/>
<path d="M48.9486 42.8025C46.3751 42.8025 44.4014 42.1409 43.0277 40.8177C41.6597 39.4944 40.9756 37.6049 40.9756 35.1435V27.3611H37.0508V22.584H38.8562C39.9608 22.584 40.7121 22.4046 41.1102 22.0458C41.5055 21.6869 41.783 20.9973 41.94 19.9712L42.2876 17.3472H46.8292V22.584H52.3688V27.3611H46.8292V34.2576C46.8292 36.5676 47.9562 37.7227 50.2158 37.7227H52.638V42.8025H48.9486Z" fill="black"/>
<path d="M65.2791 43.3409C63.1176 43.3409 61.2085 42.8924 59.5488 41.9953C57.8948 41.0982 56.6052 39.8478 55.6801 38.2386C54.7605 36.6323 54.3008 34.7792 54.3008 32.6766C54.3008 30.5684 54.7662 28.7181 55.7025 27.1258C56.6445 25.5334 57.9397 24.2887 59.5937 23.3916C61.2533 22.4945 63.1709 22.0459 65.3464 22.0459C67.662 22.0459 69.6581 22.5617 71.3346 23.5934C73.0166 24.6195 74.2978 26.0548 75.1809 27.8995C76.0696 29.747 76.4509 31.9028 76.3247 34.3699H60.1095C60.3927 35.7548 61.0094 36.8117 61.9598 37.5434C62.9074 38.2779 64.0512 38.6423 65.3912 38.6423C66.3612 38.6423 67.2527 38.4601 68.0601 38.0929C68.8731 37.72 69.5235 37.1958 70.0113 36.5229H75.9434C75.0688 38.6536 73.6923 40.3244 71.8168 41.5355C69.9468 42.741 67.7686 43.3409 65.2791 43.3409ZM60.1544 30.6693H70.6617C70.3309 29.4358 69.7114 28.4686 68.8002 27.7649C67.8863 27.0641 66.7509 26.7108 65.3912 26.7108C64.1045 26.7108 62.9943 27.0641 62.0607 27.7649C61.1244 28.4686 60.4908 29.4358 60.1544 30.6693Z" fill="black"/>
<path d="M88.8472 50.9999C86.3045 50.9999 84.185 50.3747 82.489 49.1272C80.7985 47.8852 79.7752 46.2004 79.4164 44.0697H82.6908C82.9964 45.2808 83.6888 46.2368 84.7654 46.9405C85.8419 47.6497 87.2016 48.0058 88.8472 48.0058C90.9554 48.0058 92.5842 47.4367 93.7364 46.3013C94.8942 45.1715 95.4745 43.5819 95.4745 41.5354V39.6403C94.5999 40.5682 93.5458 41.2971 92.3123 41.827C91.0787 42.3512 89.7443 42.6119 88.3089 42.6119C86.4082 42.6119 84.7093 42.1718 83.2066 41.2887C81.704 40.4 80.5153 39.1917 79.6406 37.6666C78.7716 36.136 78.3398 34.3922 78.3398 32.441C78.3398 30.4898 78.7716 28.7601 79.6406 27.249C80.5153 25.7323 81.704 24.5325 83.2066 23.6494C84.7093 22.7607 86.4082 22.3149 88.3089 22.3149C89.8256 22.3149 91.2189 22.6009 92.4917 23.1672C93.7616 23.7279 94.8298 24.51 95.6988 25.5109L96.0464 22.8196H98.7041V41.6475C98.7041 43.5231 98.3004 45.1631 97.493 46.5704C96.6856 47.9834 95.5418 49.0739 94.0616 49.8448C92.587 50.613 90.8488 50.9999 88.8472 50.9999ZM81.5694 32.441C81.5694 33.8035 81.8666 35.0174 82.4665 36.0855C83.0721 37.148 83.9131 37.975 84.9896 38.5638C86.0718 39.1553 87.2941 39.4496 88.6565 39.4496C90.0387 39.4496 91.261 39.1553 92.3235 38.5638C93.3916 37.975 94.2298 37.148 94.8354 36.0855C95.4409 35.0174 95.7437 33.8035 95.7437 32.441C95.7437 31.0813 95.4409 29.8787 94.8354 28.8302C94.2298 27.7761 93.3916 26.9462 92.3235 26.3407C91.261 25.7352 90.0387 25.4324 88.6565 25.4324C87.2941 25.4324 86.0718 25.7352 84.9896 26.3407C83.9131 26.9462 83.0721 27.7761 82.4665 28.8302C81.8666 29.8787 81.5694 31.0813 81.5694 32.441Z" fill="black"/>
<path d="M113.071 43.3072C111.067 43.3072 109.295 42.8642 107.756 41.984C106.214 41.0953 105.008 39.8533 104.134 38.261C103.265 36.6686 102.833 34.8464 102.833 32.7886C102.833 30.7337 103.265 28.9171 104.134 27.3387C105.008 25.7632 106.222 24.5325 107.778 23.6494C109.331 22.7607 111.109 22.3149 113.105 22.3149C115.235 22.3149 117.08 22.8168 118.644 23.8176C120.214 24.8212 121.417 26.2005 122.255 27.9555C123.091 29.7133 123.469 31.7626 123.388 34.1007H106.096C106.357 35.979 107.117 37.4732 108.373 38.5862C109.629 39.702 111.204 40.257 113.105 40.257C114.42 40.257 115.617 39.9767 116.693 39.416C117.77 38.8497 118.614 38.0367 119.228 36.9826H122.895C122.093 38.9338 120.82 40.4785 119.071 41.6139C117.327 42.7437 115.328 43.3072 113.071 43.3072ZM106.141 31.2523H120.158C119.822 29.4301 119.017 27.9891 117.747 26.935C116.475 25.8809 114.927 25.3539 113.105 25.3539C111.257 25.3539 109.707 25.8978 108.451 26.9799C107.195 28.0564 106.424 29.4806 106.141 31.2523Z" fill="black"/>
<path d="M127.432 42.8026V22.8196H130.089L130.437 25.7464C131.312 24.5353 132.369 23.6606 133.61 23.1223C134.858 22.5841 136.15 22.3149 137.49 22.3149C140.159 22.3149 142.237 23.1644 143.725 24.8605C145.211 26.551 145.957 28.8246 145.957 31.6785V42.8026H142.727V31.9812C142.727 29.9572 142.217 28.3536 141.202 27.1705C140.185 25.9903 138.805 25.3987 137.064 25.3987C135.831 25.3987 134.732 25.7015 133.767 26.3071C132.803 26.907 132.043 27.7592 131.491 28.8638C130.944 29.9712 130.672 31.2523 130.672 32.7101V42.8026H127.432Z" fill="black"/>
</svg>
